<?xml version="1.0" encoding="utf-8"?>
<!-- Generator: Adobe Illustrator 29.3.1, SVG Export Plug-In . SVG Version: 9.03 Build 55982)  -->
<!DOCTYPE svg PUBLIC "-//W3C//DTD SVG 1.1//EN" "http://www.w3.org/Graphics/SVG/1.1/DTD/svg11.dtd" [
	<!ENTITY ns_extend "http://ns.adobe.com/Extensibility/1.0/">
	<!ENTITY ns_ai "http://ns.adobe.com/AdobeIllustrator/10.0/">
	<!ENTITY ns_graphs "http://ns.adobe.com/Graphs/1.0/">
	<!ENTITY ns_vars "http://ns.adobe.com/Variables/1.0/">
	<!ENTITY ns_imrep "http://ns.adobe.com/ImageReplacement/1.0/">
	<!ENTITY ns_sfw "http://ns.adobe.com/SaveForWeb/1.0/">
	<!ENTITY ns_custom "http://ns.adobe.com/GenericCustomNamespace/1.0/">
	<!ENTITY ns_adobe_xpath "http://ns.adobe.com/XPath/1.0/">
]>
<svg version="1.1"
	 id="layers" xmlns:x="&ns_extend;" xmlns:i="&ns_ai;" xmlns:graph="&ns_graphs;" xmlns:xlink="http://www.w3.org/1999/xlink" xmlns:x="http://ns.adobe.com/Extensibility/1.0/" xmlns:graph="http://ns.adobe.com/Graphs/1.0/" xmlns:i="http://ns.adobe.com/AdobeIllustrator/10.0/"
	 xmlns="http://www.w3.org/2000/svg" xmlns:xlink="http://www.w3.org/1999/xlink" x="0px" y="0px" viewBox="0 0 98 96"
	 style="enable-background:new 0 0 98 96;" xml:space="preserve">
<style type="text/css">
	.st0{display:none;}
	.st1{display:inline;fill-rule:evenodd;clip-rule:evenodd;fill:#B0B0B0;}
	.st2{fill-rule:evenodd;clip-rule:evenodd;}
	.st3{display:inline;fill-rule:evenodd;clip-rule:evenodd;fill:#FF69B4;}
</style>
<metadata>
	<sfw  xmlns="&ns_sfw;">
		<slices></slices>
		<sliceSourceBounds  bottomLeftOrigin="true" height="96" width="97.6" x="0" y="0"></sliceSourceBounds>
	</sfw>
</metadata>
<g id="gray" xmlns:xlink="http://www.w3.org/1999/xlink" xmlns:x="http://ns.adobe.com/Extensibility/1.0/" xmlns:graph="http://ns.adobe.com/Graphs/1.0/" xmlns:i="http://ns.adobe.com/AdobeIllustrator/10.0/" class="st0">
	<path class="st1" d="M48.9,0C21.8,0,0,22,0,49.2C0,71,14,89.4,33.4,95.9c2.4,0.5,3.3-1.1,3.3-2.4c0-1.1-0.1-5.1-0.1-9.1
		c-13.6,2.9-16.4-5.9-16.4-5.9c-2.2-5.7-5.4-7.2-5.4-7.2c-4.4-3,0.3-3,0.3-3c4.9,0.3,7.5,5.1,7.5,5.1c4.4,7.5,11.4,5.4,14.2,4.1
		c0.4-3.2,1.7-5.4,3.1-6.6c-10.8-1.1-22.2-5.4-22.2-24.3c0-5.4,1.9-9.8,5-13.2c-0.5-1.2-2.2-6.3,0.5-13c0,0,4.1-1.3,13.4,5.1
		c4-1.1,8.1-1.6,12.2-1.6s8.3,0.6,12.2,1.6c9.3-6.4,13.4-5.1,13.4-5.1c2.7,6.8,1,11.8,0.5,13c3.2,3.4,5,7.8,5,13.2
		c0,18.9-11.4,23.1-22.3,24.3c1.8,1.5,3.3,4.5,3.3,9.1c0,6.6-0.1,11.9-0.1,13.5c0,1.3,0.9,2.9,3.3,2.4C83.6,89.4,97.6,71,97.6,49.2
		C97.7,22,75.8,0,48.9,0z"/>
</g>
<g id="black" xmlns:xlink="http://www.w3.org/1999/xlink" xmlns:x="http://ns.adobe.com/Extensibility/1.0/" xmlns:graph="http://ns.adobe.com/Graphs/1.0/" xmlns:i="http://ns.adobe.com/AdobeIllustrator/10.0/">
	<path class="st2" d="M48.9,0C21.8,0,0,22,0,49.2C0,71,14,89.4,33.4,95.9c2.4,0.5,3.3-1.1,3.3-2.4c0-1.1-0.1-5.1-0.1-9.1
		c-13.6,2.9-16.4-5.9-16.4-5.9c-2.2-5.7-5.4-7.2-5.4-7.2c-4.4-3,0.3-3,0.3-3c4.9,0.3,7.5,5.1,7.5,5.1c4.4,7.5,11.4,5.4,14.2,4.1
		c0.4-3.2,1.7-5.4,3.1-6.6c-10.8-1.1-22.2-5.4-22.2-24.3c0-5.4,1.9-9.8,5-13.2c-0.5-1.2-2.2-6.3,0.5-13c0,0,4.1-1.3,13.4,5.1
		c4-1.1,8.1-1.6,12.2-1.6s8.3,0.6,12.2,1.6c9.3-6.4,13.4-5.1,13.4-5.1c2.7,6.8,1,11.8,0.5,13c3.2,3.4,5,7.8,5,13.2
		c0,18.9-11.4,23.1-22.3,24.3c1.8,1.5,3.3,4.5,3.3,9.1c0,6.6-0.1,11.9-0.1,13.5c0,1.3,0.9,2.9,3.3,2.4C83.6,89.4,97.6,71,97.6,49.2
		C97.7,22,75.8,0,48.9,0z"/>
</g>
<g id="pink" xmlns:xlink="http://www.w3.org/1999/xlink" xmlns:x="http://ns.adobe.com/Extensibility/1.0/" xmlns:graph="http://ns.adobe.com/Graphs/1.0/" xmlns:i="http://ns.adobe.com/AdobeIllustrator/10.0/" class="st0">
	<path class="st3" d="M48.9,0C21.8,0,0,22,0,49.2C0,71,14,89.4,33.4,95.9c2.4,0.5,3.3-1.1,3.3-2.4c0-1.1-0.1-5.1-0.1-9.1
		c-13.6,2.9-16.4-5.9-16.4-5.9c-2.2-5.7-5.4-7.2-5.4-7.2c-4.4-3,0.3-3,0.3-3c4.9,0.3,7.5,5.1,7.5,5.1c4.4,7.5,11.4,5.4,14.2,4.1
		c0.4-3.2,1.7-5.4,3.1-6.6c-10.8-1.1-22.2-5.4-22.2-24.3c0-5.4,1.9-9.8,5-13.2c-0.5-1.2-2.2-6.3,0.5-13c0,0,4.1-1.3,13.4,5.1
		c4-1.1,8.1-1.6,12.2-1.6s8.3,0.6,12.2,1.6c9.3-6.4,13.4-5.1,13.4-5.1c2.7,6.8,1,11.8,0.5,13c3.2,3.4,5,7.8,5,13.2
		c0,18.9-11.4,23.1-22.3,24.3c1.8,1.5,3.3,4.5,3.3,9.1c0,6.6-0.1,11.9-0.1,13.5c0,1.3,0.9,2.9,3.3,2.4C83.6,89.4,97.6,71,97.6,49.2
		C97.7,22,75.8,0,48.9,0z"/>
</g>
</svg>
